<mxfile modified="2022-05-24T11:17:19.870Z" host="app.diagrams.net" agent="5.0 (Windows NT 10.0; Win64; x64) AppleWebKit/537.36 (KHTML, like Gecko) Chrome/101.0.4951.64 Safari/537.36 Edg/101.0.1210.53" etag="RuwHuswN3rCI9VSQlVSD" version="18.0.5" type="github">
  <diagram id="WI9T0HZ2pTsCkuznbFz-" name="Page-1">
    <mxGraphModel dx="2770" dy="1870" grid="1" gridSize="10" guides="1" tooltips="1" connect="1" arrows="1" fold="1" page="1" pageScale="1" pageWidth="1169" pageHeight="827" math="0" shadow="0">
      <root>
        <mxCell id="0" />
        <mxCell id="1" parent="0" />
        <mxCell id="vkz5YeI83fRulZG_e0uG-41" value="" style="verticalLabelPosition=bottom;verticalAlign=top;html=1;shape=mxgraph.basic.rect;fillColor2=none;strokeWidth=1;size=20;indent=5;opacity=5;fillColor=#37FA92;strokeColor=default;fontColor=#ffffff;perimeterSpacing=0;" vertex="1" parent="1">
          <mxGeometry x="1418.01" y="672" width="221.99" height="128" as="geometry" />
        </mxCell>
        <mxCell id="vkz5YeI83fRulZG_e0uG-34" style="edgeStyle=orthogonalEdgeStyle;rounded=0;orthogonalLoop=1;jettySize=auto;html=1;entryX=0.006;entryY=0.517;entryDx=0;entryDy=0;entryPerimeter=0;fontSize=10;" edge="1" parent="1" source="vkz5YeI83fRulZG_e0uG-25" target="vkz5YeI83fRulZG_e0uG-31">
          <mxGeometry relative="1" as="geometry">
            <Array as="points">
              <mxPoint x="1210" y="904" />
              <mxPoint x="1210" y="1032" />
            </Array>
          </mxGeometry>
        </mxCell>
        <mxCell id="vkz5YeI83fRulZG_e0uG-38" style="edgeStyle=orthogonalEdgeStyle;rounded=0;orthogonalLoop=1;jettySize=auto;html=1;fontSize=10;entryX=-0.006;entryY=0.496;entryDx=0;entryDy=0;entryPerimeter=0;" edge="1" parent="1" source="vkz5YeI83fRulZG_e0uG-25" target="vkz5YeI83fRulZG_e0uG-41">
          <mxGeometry relative="1" as="geometry">
            <mxPoint x="1230" y="732" as="targetPoint" />
            <Array as="points">
              <mxPoint x="1210" y="904" />
              <mxPoint x="1210" y="736" />
            </Array>
          </mxGeometry>
        </mxCell>
        <mxCell id="vkz5YeI83fRulZG_e0uG-25" value="" style="rounded=0;whiteSpace=wrap;html=1;fillColor=none;" vertex="1" parent="1">
          <mxGeometry x="808" y="210" width="270" height="1388" as="geometry" />
        </mxCell>
        <mxCell id="0FrXJ8e2atUW8C_dXmEW-25" style="edgeStyle=orthogonalEdgeStyle;rounded=0;orthogonalLoop=1;jettySize=auto;html=1;entryX=0.98;entryY=0.48;entryDx=0;entryDy=0;entryPerimeter=0;fontSize=10;fontColor=#454545;" parent="1" source="0FrXJ8e2atUW8C_dXmEW-1" target="0FrXJ8e2atUW8C_dXmEW-23" edge="1">
          <mxGeometry relative="1" as="geometry">
            <Array as="points">
              <mxPoint x="338" y="817" />
            </Array>
          </mxGeometry>
        </mxCell>
        <mxCell id="vkz5YeI83fRulZG_e0uG-13" style="edgeStyle=orthogonalEdgeStyle;rounded=0;orthogonalLoop=1;jettySize=auto;html=1;dashed=1;entryX=-0.005;entryY=0.449;entryDx=0;entryDy=0;entryPerimeter=0;" edge="1" parent="1" source="0FrXJ8e2atUW8C_dXmEW-1" target="vkz5YeI83fRulZG_e0uG-3">
          <mxGeometry relative="1" as="geometry">
            <mxPoint x="750" y="900" as="targetPoint" />
            <Array as="points">
              <mxPoint x="600" y="1048" />
              <mxPoint x="600" y="895" />
            </Array>
          </mxGeometry>
        </mxCell>
        <mxCell id="vkz5YeI83fRulZG_e0uG-14" style="edgeStyle=orthogonalEdgeStyle;rounded=0;orthogonalLoop=1;jettySize=auto;html=1;entryX=0.008;entryY=0.49;entryDx=0;entryDy=0;entryPerimeter=0;dashed=1;" edge="1" parent="1" source="0FrXJ8e2atUW8C_dXmEW-1" target="vkz5YeI83fRulZG_e0uG-9">
          <mxGeometry relative="1" as="geometry">
            <Array as="points">
              <mxPoint x="600" y="1048" />
              <mxPoint x="600" y="1170" />
            </Array>
          </mxGeometry>
        </mxCell>
        <mxCell id="vkz5YeI83fRulZG_e0uG-22" style="edgeStyle=orthogonalEdgeStyle;rounded=0;orthogonalLoop=1;jettySize=auto;html=1;entryX=0.003;entryY=0.447;entryDx=0;entryDy=0;entryPerimeter=0;dashed=1;" edge="1" parent="1" source="0FrXJ8e2atUW8C_dXmEW-1" target="0FrXJ8e2atUW8C_dXmEW-12">
          <mxGeometry relative="1" as="geometry">
            <Array as="points">
              <mxPoint x="600" y="1048" />
              <mxPoint x="600" y="629" />
            </Array>
          </mxGeometry>
        </mxCell>
        <mxCell id="vkz5YeI83fRulZG_e0uG-23" style="edgeStyle=orthogonalEdgeStyle;rounded=0;orthogonalLoop=1;jettySize=auto;html=1;entryX=0.003;entryY=0.518;entryDx=0;entryDy=0;entryPerimeter=0;dashed=1;" edge="1" parent="1" source="0FrXJ8e2atUW8C_dXmEW-1" target="vkz5YeI83fRulZG_e0uG-17">
          <mxGeometry relative="1" as="geometry">
            <Array as="points">
              <mxPoint x="600" y="1048" />
              <mxPoint x="600" y="1443" />
            </Array>
          </mxGeometry>
        </mxCell>
        <mxCell id="0FrXJ8e2atUW8C_dXmEW-1" value="APIM GraphQL&lt;br&gt;Passthrough" style="aspect=fixed;html=1;points=[];align=center;image;fontSize=12;image=img/lib/azure2/integration/API_Management_Services.svg;" parent="1" vertex="1">
          <mxGeometry x="300" y="1013" width="75.83" height="70" as="geometry" />
        </mxCell>
        <mxCell id="0FrXJ8e2atUW8C_dXmEW-3" style="edgeStyle=orthogonalEdgeStyle;rounded=0;orthogonalLoop=1;jettySize=auto;html=1;" parent="1" source="0FrXJ8e2atUW8C_dXmEW-2" target="0FrXJ8e2atUW8C_dXmEW-1" edge="1">
          <mxGeometry relative="1" as="geometry" />
        </mxCell>
        <mxCell id="0FrXJ8e2atUW8C_dXmEW-14" value="/graphql-api" style="edgeLabel;html=1;align=center;verticalAlign=middle;resizable=0;points=[];fontSize=12;" parent="0FrXJ8e2atUW8C_dXmEW-3" vertex="1" connectable="0">
          <mxGeometry x="-0.1401" y="-2" relative="1" as="geometry">
            <mxPoint y="-2" as="offset" />
          </mxGeometry>
        </mxCell>
        <mxCell id="0FrXJ8e2atUW8C_dXmEW-24" style="edgeStyle=orthogonalEdgeStyle;rounded=0;orthogonalLoop=1;jettySize=auto;html=1;fontSize=10;fontColor=#454545;startArrow=classic;startFill=1;" parent="1" source="0FrXJ8e2atUW8C_dXmEW-2" edge="1">
          <mxGeometry relative="1" as="geometry">
            <mxPoint x="69" y="863" as="targetPoint" />
          </mxGeometry>
        </mxCell>
        <mxCell id="0FrXJ8e2atUW8C_dXmEW-2" value="App" style="shape=image;verticalLabelPosition=bottom;labelBackgroundColor=#ffffff;verticalAlign=top;aspect=fixed;imageAspect=0;image=data:image/svg+xml,PHN2ZyB4bWxuczpjYz0iaHR0cDovL2NyZWF0aXZlY29tbW9ucy5vcmcvbnMjIiB4bWxuczpkYz0iaHR0cDovL3B1cmwub3JnL2RjL2VsZW1lbnRzLzEuMS8iIHhtbG5zOmlua3NjYXBlPSJodHRwOi8vd3d3Lmlua3NjYXBlLm9yZy9uYW1lc3BhY2VzL2lua3NjYXBlIiB4bWxuczpyZGY9Imh0dHA6Ly93d3cudzMub3JnLzE5OTkvMDIvMjItcmRmLXN5bnRheC1ucyMiIHhtbG5zOnNvZGlwb2RpPSJodHRwOi8vc29kaXBvZGkuc291cmNlZm9yZ2UubmV0L0RURC9zb2RpcG9kaS0wLmR0ZCIgeG1sbnM6c3ZnPSJodHRwOi8vd3d3LnczLm9yZy8yMDAwL3N2ZyIgeG1sbnM9Imh0dHA6Ly93d3cudzMub3JnLzIwMDAvc3ZnIiB4bWxuczp4bGluaz0iaHR0cDovL3d3dy53My5vcmcvMTk5OS94bGluayIgdmVyc2lvbj0iMS4xIiBpZD0ic3ZnNTk4MDUiIGlua3NjYXBlOnZlcnNpb249IjAuOTIuMyAoMjQwNTU0NiwgMjAxOC0wMy0xMSkiIHNvZGlwb2RpOmRvY25hbWU9ImJyb3dzZXIuc3ZnIiB4PSIwcHgiIHk9IjBweCIgdmlld0JveD0iMCAwIDg4LjE3IDc3LjA1IiBzdHlsZT0iZW5hYmxlLWJhY2tncm91bmQ6bmV3IDAgMCA4OC4xNyA3Ny4wNTsiIHhtbDpzcGFjZT0icHJlc2VydmUiPiYjeGE7PHNvZGlwb2RpOm5hbWVkdmlldyBib3JkZXJjb2xvcj0iIzY2NjY2NiIgYm9yZGVyb3BhY2l0eT0iMSIgZml0LW1hcmdpbi1ib3R0b209IjAiIGZpdC1tYXJnaW4tbGVmdD0iMCIgZml0LW1hcmdpbi1yaWdodD0iMCIgZml0LW1hcmdpbi10b3A9IjAiIGdyaWR0b2xlcmFuY2U9IjEwIiBndWlkZXRvbGVyYW5jZT0iMTAiIGlkPSJuYW1lZHZpZXc1OTgwNyIgaW5rc2NhcGU6Y3VycmVudC1sYXllcj0ic3ZnNTk4MDUiIGlua3NjYXBlOmN4PSI1OC43NzgxMjUiIGlua3NjYXBlOmN5PSI1MS4zNjIyMTUiIGlua3NjYXBlOnBhZ2VvcGFjaXR5PSIwIiBpbmtzY2FwZTpwYWdlc2hhZG93PSIyIiBpbmtzY2FwZTp3aW5kb3ctaGVpZ2h0PSIxMDE3IiBpbmtzY2FwZTp3aW5kb3ctbWF4aW1pemVkPSIxIiBpbmtzY2FwZTp3aW5kb3ctd2lkdGg9IjE5MjAiIGlua3NjYXBlOndpbmRvdy14PSItOCIgaW5rc2NhcGU6d2luZG93LXk9Ii04IiBpbmtzY2FwZTp6b29tPSI4LjA5ODMyMjkiIG9iamVjdHRvbGVyYW5jZT0iMTAiIHBhZ2Vjb2xvcj0iI2ZmZmZmZiIgc2hvd2dyaWQ9ImZhbHNlIj4mI3hhOwk8L3NvZGlwb2RpOm5hbWVkdmlldz4mI3hhOzxnIGlkPSJnNTk4MDMiIHRyYW5zZm9ybT0idHJhbnNsYXRlKC0xLjYyMDkzLC0xLjYxODgxKSI+JiN4YTsJPHRpdGxlIGlkPSJ0aXRsZTU5NzY4Ij5QYWdlLTE8L3RpdGxlPiYjeGE7CTxnIGlkPSJncm91cDUyMzMtMSIgdHJhbnNmb3JtPSJ0cmFuc2xhdGUoMS42MjA5MywtMS42MjA5MykiPiYjeGE7CQk8dGl0bGUgaWQ9InRpdGxlNTk3NzAiPkJyb3dzZXI8L3RpdGxlPiYjeGE7CQk8ZyBpZD0ic2hhcGU1MjM0LTIiPiYjeGE7CQkJPHRpdGxlIGlkPSJ0aXRsZTU5NzcyIj5wYXRoMzM3PC90aXRsZT4mI3hhOwkJCTxwYXRoIGlkPSJwYXRoNTk3NzQiIGlua3NjYXBlOmNvbm5lY3Rvci1jdXJ2YXR1cmU9IjAiIHN0eWxlPSJmaWxsOiM1OUI0RDk7IiBkPSJNMCw3Ni43N2MwLjAxLDEuOTQsMS41OSwzLjUyLDMuNTMsMy41Mmg4MS4xMSAgICAgYzEuOTQsMCwzLjUyLTEuNTgsMy41My0zLjUydi01NS4ySDBWNzYuNzd6Ii8+JiN4YTsJCTwvZz4mI3hhOwkJPGcgaWQ9InNoYXBlNTIzNS00IiB0cmFuc2Zvcm09InRyYW5zbGF0ZSgwLC01NC44NDU5KSI+JiN4YTsJCQk8dGl0bGUgaWQ9InRpdGxlNTk3NzciPnBhdGgzMzk8L3RpdGxlPiYjeGE7CQkJPHBhdGggaWQ9InBhdGg1OTc3OSIgaW5rc2NhcGU6Y29ubmVjdG9yLWN1cnZhdHVyZT0iMCIgc3R5bGU9ImZpbGw6I0EwQTFBMjsiIGQ9Ik04NC42NCw1OC4wOUgzLjUzYy0xLjk0LDAtMy41MiwxLjU4LTMuNTMsMy41MiAgICAgdjE4LjY4aDg4LjE3VjYxLjYxQzg4LjE2LDU5LjY3LDg2LjU4LDU4LjA5LDg0LjY0LDU4LjA5eiIvPiYjeGE7CQk8L2c+JiN4YTsJCTxnIGlkPSJzaGFwZTUyMzYtNiIgdHJhbnNmb3JtPSJ0cmFuc2xhdGUoMCwtMS45NDAyNikiPiYjeGE7CQkJPHRpdGxlIGlkPSJ0aXRsZTU5NzgyIj5wYXRoMzQxPC90aXRsZT4mI3hhOwkJCTxwYXRoIGlkPSJwYXRoNTk3ODQiIGlua3NjYXBlOmNvbm5lY3Rvci1jdXJ2YXR1cmU9IjAiIHN0eWxlPSJmaWxsOiNGRkZGRkY7ZmlsbC1vcGFjaXR5OjAuMjsiIGQ9Ik0zLjUzLDUuMTggICAgIEMxLjU5LDUuMTgsMC4wMSw2Ljc2LDAsOC43djY4LjA3YzAuMDEsMS45NCwxLjU5LDMuNTIsMy41MywzLjUyaDMuODhMNzYuODgsNS4xOEgzLjUzeiIvPiYjeGE7CQk8L2c+JiN4YTsJCTxnIGlkPSJzaGFwZTUyMzctOCIgdHJhbnNmb3JtPSJ0cmFuc2xhdGUoMjIuNzQ4MiwtNjEuNzE3MSkiPiYjeGE7CQkJPHRpdGxlIGlkPSJ0aXRsZTU5Nzg3Ij5yZWN0MzQzPC90aXRsZT4mI3hhOwkJCTxyZWN0IGlkPSJyZWN0NTk3ODkiIHg9IjAiIHk9IjczLjQyIiBzdHlsZT0iZmlsbDojRkZGRkZGOyIgd2lkdGg9IjU5LjQzIiBoZWlnaHQ9IjYuODgiLz4mI3hhOwkJPC9nPiYjeGE7CQk8ZyBpZD0ic2hhcGU1MjM4LTEwIiB0cmFuc2Zvcm09InRyYW5zbGF0ZSg1LjE3NDY5LC01OS4xMzQpIj4mI3hhOwkJCTx0aXRsZSBpZD0idGl0bGU1OTc5MiI+cGF0aDM0NTwvdGl0bGU+JiN4YTsJCQk8cGF0aCBpZD0icGF0aDU5Nzk0IiBpbmtzY2FwZTpjb25uZWN0b3ItY3VydmF0dXJlPSIwIiBzdHlsZT0iZmlsbDojNTlCNEQ5OyIgZD0iTTE0Ljc1LDc0LjE4YzAsNC43Ny0zLjg3LDguNjQtOC42NCw4LjY0ICAgICBzLTguNjQtMy44Ny04LjY0LTguNjRjMC00Ljc3LDMuODctOC42NCw4LjY0LTguNjRjMCwwLDAsMCwwLDBDMTAuODgsNjUuNTUsMTQuNzQsNjkuNDEsMTQuNzUsNzQuMTh6Ii8+JiN4YTsJCTwvZz4mI3hhOwkJPGcgaWQ9InNoYXBlNTIzOS0xMiIgdHJhbnNmb3JtPSJ0cmFuc2xhdGUoNy4wNTI2OSwtNjAuMTMwMikiPiYjeGE7CQkJPHRpdGxlIGlkPSJ0aXRsZTU5Nzk3Ij5wb2x5Z29uMzQ3PC90aXRsZT4mI3hhOwkJCTxwYXRoIGlkPSJwYXRoNTk3OTkiIGlua3NjYXBlOmNvbm5lY3Rvci1jdXJ2YXR1cmU9IjAiIHN0eWxlPSJmaWxsOiNGRkZGRkY7IiBkPSJNNy4yMyw4MC4yOUg1LjExTDAsNzUuMzZsNS4xMS00Ljk0aDIuMTIgICAgIGwtMy44OCw0LjA2aDkuNTJ2MS43NkgzLjM1TDcuMjMsODAuMjl6Ii8+JiN4YTsJCTwvZz4mI3hhOwk8L2c+JiN4YTs8L2c+JiN4YTs8L3N2Zz4=;" parent="1" vertex="1">
          <mxGeometry x="35" y="1018" width="68.57" height="60" as="geometry" />
        </mxCell>
        <mxCell id="0FrXJ8e2atUW8C_dXmEW-23" value="Azure AD" style="sketch=0;aspect=fixed;html=1;points=[];align=center;image;fontSize=12;image=img/lib/mscae/Azure_AD_Domain_Services.svg;fontColor=#454545;fillColor=#F5F5F5;gradientColor=none;" parent="1" vertex="1">
          <mxGeometry x="43" y="793" width="50" height="50" as="geometry" />
        </mxCell>
        <mxCell id="vkz5YeI83fRulZG_e0uG-2" value="" style="group" vertex="1" connectable="0" parent="1">
          <mxGeometry x="839" y="797" width="210" height="210" as="geometry" />
        </mxCell>
        <mxCell id="vkz5YeI83fRulZG_e0uG-3" value="" style="verticalLabelPosition=bottom;verticalAlign=top;html=1;shape=mxgraph.basic.rect;fillColor2=none;strokeWidth=1;size=20;indent=5;opacity=25;fillColor=#F5F5F5;" vertex="1" parent="vkz5YeI83fRulZG_e0uG-2">
          <mxGeometry y="6.176470588235294" width="210" height="203.82352941176472" as="geometry" />
        </mxCell>
        <mxCell id="vkz5YeI83fRulZG_e0uG-5" value="&lt;font color=&quot;#454545&quot; style=&quot;font-size: 12px;&quot;&gt;Container Instances&lt;/font&gt;" style="text;strokeColor=none;fillColor=none;html=1;fontSize=24;fontStyle=1;verticalAlign=middle;align=center;" vertex="1" parent="vkz5YeI83fRulZG_e0uG-2">
          <mxGeometry x="117.52941176470588" y="-1" width="61.76470588235294" height="24.705882352941178" as="geometry" />
        </mxCell>
        <mxCell id="vkz5YeI83fRulZG_e0uG-7" value="&lt;span style=&quot;font-size: 10px;&quot;&gt;GraphQL Api Hosted In Container Instance&lt;/span&gt;" style="aspect=fixed;html=1;points=[];align=center;image;fontSize=12;image=img/lib/azure2/compute/Container_Instances.svg;" vertex="1" parent="vkz5YeI83fRulZG_e0uG-2">
          <mxGeometry x="80" y="90" width="64" height="68" as="geometry" />
        </mxCell>
        <mxCell id="vkz5YeI83fRulZG_e0uG-8" value="" style="group" vertex="1" connectable="0" parent="1">
          <mxGeometry x="839" y="1064" width="210" height="210" as="geometry" />
        </mxCell>
        <mxCell id="vkz5YeI83fRulZG_e0uG-9" value="" style="verticalLabelPosition=bottom;verticalAlign=top;html=1;shape=mxgraph.basic.rect;fillColor2=none;strokeWidth=1;size=20;indent=5;opacity=25;fillColor=#F5F5F5;" vertex="1" parent="vkz5YeI83fRulZG_e0uG-8">
          <mxGeometry y="6.176470588235294" width="210" height="203.82352941176472" as="geometry" />
        </mxCell>
        <mxCell id="vkz5YeI83fRulZG_e0uG-10" value="&lt;font color=&quot;#454545&quot; style=&quot;font-size: 12px;&quot;&gt;App Service&lt;/font&gt;" style="text;strokeColor=none;fillColor=none;html=1;fontSize=24;fontStyle=1;verticalAlign=middle;align=center;" vertex="1" parent="vkz5YeI83fRulZG_e0uG-8">
          <mxGeometry x="142.52941176470588" y="-1" width="61.76470588235294" height="24.705882352941178" as="geometry" />
        </mxCell>
        <mxCell id="vkz5YeI83fRulZG_e0uG-12" value="&lt;font style=&quot;font-size: 10px;&quot;&gt;&lt;br&gt;&lt;span style=&quot;color: rgb(0, 0, 0); font-family: Helvetica; font-style: normal; font-variant-ligatures: normal; font-variant-caps: normal; font-weight: 400; letter-spacing: normal; orphans: 2; text-align: center; text-indent: 0px; text-transform: none; widows: 2; word-spacing: 0px; -webkit-text-stroke-width: 0px; background-color: rgb(255, 255, 255); text-decoration-thickness: initial; text-decoration-style: initial; text-decoration-color: initial; float: none; display: inline !important;&quot;&gt;GraphQL Api Hosted In App Service&lt;br&gt;&lt;/span&gt;as a container&lt;/font&gt;" style="aspect=fixed;html=1;points=[];align=center;image;fontSize=12;image=img/lib/azure2/app_services/App_Services.svg;" vertex="1" parent="vkz5YeI83fRulZG_e0uG-8">
          <mxGeometry x="73" y="80" width="64" height="64" as="geometry" />
        </mxCell>
        <mxCell id="vkz5YeI83fRulZG_e0uG-15" value="AuthN&lt;br&gt;&amp;amp;&lt;br&gt;AuthZ" style="shape=note;strokeWidth=2;fontSize=14;size=20;whiteSpace=wrap;html=1;fillColor=#fff2cc;strokeColor=#d6b656;fontColor=#666600;" vertex="1" parent="1">
          <mxGeometry x="150" y="893" width="110.00000000000001" height="80" as="geometry" />
        </mxCell>
        <mxCell id="vkz5YeI83fRulZG_e0uG-16" value="" style="group" vertex="1" connectable="0" parent="1">
          <mxGeometry x="840" y="1331" width="210" height="210" as="geometry" />
        </mxCell>
        <mxCell id="vkz5YeI83fRulZG_e0uG-17" value="" style="verticalLabelPosition=bottom;verticalAlign=top;html=1;shape=mxgraph.basic.rect;fillColor2=none;strokeWidth=1;size=20;indent=5;opacity=25;fillColor=#F5F5F5;" vertex="1" parent="vkz5YeI83fRulZG_e0uG-16">
          <mxGeometry y="6.176470588235294" width="210" height="203.82352941176472" as="geometry" />
        </mxCell>
        <mxCell id="vkz5YeI83fRulZG_e0uG-18" value="&lt;font color=&quot;#454545&quot; style=&quot;font-size: 12px;&quot;&gt;Function App&lt;/font&gt;" style="text;strokeColor=none;fillColor=none;html=1;fontSize=24;fontStyle=1;verticalAlign=middle;align=center;" vertex="1" parent="vkz5YeI83fRulZG_e0uG-16">
          <mxGeometry x="138.52941176470588" y="-1" width="61.76470588235294" height="24.705882352941178" as="geometry" />
        </mxCell>
        <mxCell id="vkz5YeI83fRulZG_e0uG-20" value="&lt;br&gt;&lt;span style=&quot;font-size: 10px;&quot;&gt;GraphQL Api Hosted In Function App&lt;br&gt;as a container&lt;br&gt;&lt;/span&gt;" style="aspect=fixed;html=1;points=[];align=center;image;fontSize=12;image=img/lib/azure2/compute/Function_Apps.svg;" vertex="1" parent="vkz5YeI83fRulZG_e0uG-16">
          <mxGeometry x="71" y="78.08999999999992" width="68" height="60" as="geometry" />
        </mxCell>
        <mxCell id="0FrXJ8e2atUW8C_dXmEW-12" value="" style="verticalLabelPosition=bottom;verticalAlign=top;html=1;shape=mxgraph.basic.rect;fillColor2=none;strokeWidth=1;size=20;indent=5;opacity=25;fillColor=#F5F5F5;" parent="1" vertex="1">
          <mxGeometry x="834" y="538.1764705882354" width="210" height="203.82352941176472" as="geometry" />
        </mxCell>
        <mxCell id="0FrXJ8e2atUW8C_dXmEW-9" value="" style="shape=image;verticalLabelPosition=bottom;labelBackgroundColor=default;verticalAlign=top;aspect=fixed;imageAspect=0;image=data:image/png,iVBORw0KGgoAAAANSUhEUgAAAMcAAAC7CAYAAADR5Yp8AAAAAXNSR0IArs4c6QAAAARnQU1BAACxjwv8YQUAAAAJcEhZcwAAFiUAABYlAUlSJPAAAAyZSURBVHhe7d15bFTHHQfwn42N7w1gm4AhXCYVhHC4YFMFyCFIoC0Fu1HaEFSiplFaCVVV0qZ/NGrS+0jTRGobFLX9i6oibf/AommcIFCgJRLYHEoQRzmqpooNweHQLj7Axu78ZufB83rHXsfvmHn7/SSTeeM1kfHOd2bevN19Of0CAcAguaoGgBQIB4AGwgGggXAAaCAcABoIB4AGwgGggXAAaCAcABoIB4AGwgGggXAAaCAcABoIB4AGwgGggXAAaCAcABrGvhMwkUhQPB6ntrY2am1tVV/NHrW1tTRlyhTVGoh/N7t371at7FFWViZ/J3PmzFFf8Zdx4XCe+GwMhFt9fb02HPy7aWxsVK3sxEFpaGiQtV+MWla1tLTQ1q1bsz4YMDweRLdv3y77jF+MCQePhM3NzaoFMDwOCPcZv2ZRI8LB6cdsAZ8U9x0/ZpDQw+GkH2A0Tpw44fkAG3o4snHXBbznxw5e6OHAcgq8wgHxUqhbuSdPnswo7c7+dlTw33s4Xm3lBnVNIAjc+YcbTIf6vY2U8eHw8i9rAn6Cebt6OF6FY/PmzerIfs7SaaiA1NXVyQuoXgh1WTXcKBC1GQNGJ5MLfvyqCq8YsZWrE4vF1BFA8IwOB0CYEA4ADYQDQAPhANBAOAA0EA4ADYQDQAPhANBAOAA0EA4ADYQDQAPhANBAOAA0EA4ADYQDQAPhANBAOAA0EA4ADYQDQAPhANBAOAA0EA4ADYQDQAPhANBAOAA0EA7D7dlxig6/00qnD1xRX4GgIByGuHIuh86fyqV/7x1D772RRz9+4h360qLf05bn99Avnv4HPff1v9IrT+2nM7uv0/U4nrYg4LccAg7Bfw8lg3Dg9Xza+4d8GQhu82MclEsfdarvvuXo0f/Q6d09dPJPMZrcvppKO2ZTXm+pehS8hnD46NjBNrks4tH/h0++QZs/t42+tmKbDMEHh5NB6B7R/Vb6qa+vn/iuEQXdk6jy8jKaeu5hmiSDUi2CUqK+D7wQ6v05+F4LQ93IhW8/wPepsAGHoL0tIcuxg+dk7bXSohJ6+L71qpVed8F5unLbe9Q7JkG9eR2Ruj8H4/uSDHXrCr5Zz8qVK1VrdBCOEeLZoL3tKh1X9QUViCCUcDjuXSeP+VnLyZGHUrp2R+lZenDjfCqvHqO+aj+EQwk7HEHMBiPB4fjiimQ4RqKiOo/KZ42hqUvyqHi83StphEMJKhxhzgYjweFoWO6Eg58211SRYbtCzCJ3LMmXs4mNQQkyHFl9Qv631w7J7VI+WeaTZp4pkkExLxiDuTs+y6z98dkbdOQv3bTrZx307mud9L+DPdR5uU8+BgNldTg4DFYRgz/vVnlV2k/30uFtXbTzJ1dp35YOEZxe6ryEoDiwlRuCooIimhAbT7OnzpJl6V2LZfnsZ1bR1Moq9V3B4hll35ZO2vnTq3T49S4ERUA4fMIB4I7uDgB3fi731yyT7TvF17lwULhkgk8R+SwxWTvF2/YHzT30r1c76JCYVU68fS1rQ4JwjAIHgEs6HIj51XcNCIAXuCPfrPtzfG1/fOYGnXirm94Wyy4OS7YFBeHIQLplkDMDLBABCBJ3Wj5f4BG+TxRZD2j78/iF0z10vKmbmn6UoH/+rkPMLtcjHxSEIwUHwQmAOwSpy6Cw9YtRPl3t8PPx9jO91PLnLhmUvSIo3O6IYFAQjhTlouOP9DwgKGJQvzmqu0d8dzvoxy+c6qG9v71Kb/4gLmveAYsKhMNCol8OYEr7ggjGHhEQXn5FAcJhmeSo7cwgok5pm/D4RxGZPRAOm8jON/QOkwmPd1yMxvkHwmGZ5Mh9a5Q2tR0FCAeABsJhGV7bm176RYkChAM81z/oFcF2Qjgsk1zbu3eHTGyL/0QAwmER7nJOB+T3Z9zqjGa1+/r6KJFI+FKCZPw7AWtra1XLe/zZUKkfgcOvpOUXDGbqUvwyHTh+SLVumV89T/y/JqtW5o6ePU4ftrep1kBFBSW0auEa1TJX/9gOSsz9u2oFK2veJus3/syo1I/GMT0cKxeskR+kwM+aqXV/QSddnbtD/dTBwttks5XoeTyWiVWLqs1sc4kChMMqYmgewPS23RAOq6QbtVNrAx4Xx1GAcFhI9EEhuTs0uDbg8WRlPYTDMjw6m1/UD2s5hMNSqR3QtHYUIBwW4f7Ha3v3ut/EdlTOOUK9zsFXPOPxuGoFz7aLgIVji+neuQ+JI94V4qfNzLp4PNF9z/aI4+DFYjEqKytTrdEJNRxh4/tlpH70p+nhWDGHwyG6oHjW+KKbw6R2acUY2vByebJhMSyrLMOdkIv72LR2VCAcNpGdL3VnyMwSBQiHZZx+Z3Stjm2HcFiGR+Vbu0OG1ggHhMM5Cza9tl+ou1V8h56g38Di9vI3m+lK+8APIDN6tyq/mJZWr5K7QvysmVoXje+je74VzhY9b+Py+4C8gPdzWPR+Diccpssp7KT+2ibVChbez5GleBTjscz8kvx5bYdwWCbZ8XSviDWjlocRgHBYhkdm+folg2suUYBwWEec9ZpeR2TqQDhsIjpdpqN32HUUIBwWcvqesfXNWcRuCIdleFS2oUSB0dc5+IJOQ0ODannvu4/soIvnO1QryeTrHAV5xVRzxwOUk8O7Qvy08QgtxmnVzhH/iK4Z+uNlFbn06Mul4jFvNTc3D3tdLGuuczhvXPGr5ObaN3Fyn0yu6/k4WTttU+7yxGFJ9/sebQkallXgOZ5DogDhsIgYl9UonaxvlpS2CY9HAcJhoUF9L6Ud9uOD2pZCOCzDozJ3TrNrcRABCIdl+G6tptfRiAbCYRc1MjvrelNr8W8kIBzgueWPxdSR3RAOy2Q6eodR372yhDb8fCLNX1Wiflq7IRwWymTdH1Q9fUEhff7pcvpe0zRa+8wE0S6Qj0UBwmEZHqXdI3ZYbZ4dNv6yUpSJtODBaMwUqRCOFBfjl+Xrm5KvcTonXztlCj7P5dFa9E0hWQfZniZmhbXPVNBzb02jL3y7XM4aUYZwpOi61iVf+Mfl6Nlj8kWFTft30Z4j78pjd2i6rg385JIguEfvoArPDF95caIot9PCh6I5S6SDcGSIQ8OBcIdmz5F9aV+RGwU8K6z7Tjl9f+d0WU9fGO1ZIh2EwyZiecNrfz+LnCV+dTtteolnCe9fdm4ThMMnPLu4l2LeLseSu0Ve1TPErLD+2Qp6YdcMWXMbsjwcE6vKqFIUv7iXYqnLMQ5O6nkMl07xZ4YiTgHUucDoaz5/ePylSfT4ryfRotXZPUukY/Q7AfljHevr61XLP3wDmwuiHD94ThY+Tr2pjQnyc4to9rgVlCMGfH7WeNznJ28k7RmLCmUQbAxDJp+Q6eU7AREODRMDw+Govm25ao1MzRoORBnNFOGwFcLhEmY40gk7MO5wyJnAmRFctYPbM2sKqUYEgoMRBQiHi2nhSCfIwOSJcMwqWyZCwBfm+GnjNAz+wIPima20/ql5NO+eCaIdHQiHiw3hSMevwCTDkX5ZNbbyIhXN+FAGg23atCmUDyXwU9DhwFauD3gHbN6SKnrkG4vphT+upVff3CALH6/76t00bnI/FX7CfstjGRe+JsE1B6L8/v1U/sCBm8EAbyAcAXECs/6J+bRwbS8tfbRHFj6e/ukbGQeG5/mqubk0fun7VPXlJhpX9z6NnXhJPQpeQjhCxGHgUMxY3DcoMKsfu1OGyX0dZuq0SnryN5Op/vl8zBIBQDgM4wRmzcZPDViScXmxcQ3NqilS3wl+QzgswLOHn1fyIT2EA0AD4QDQQDgANBAOAA2EA0AD4QDQQDgANBAOAA2EA0AD4QDQQDgANBAOAA2EA0AD4QDQQDgANBAOAA2EA0AD4QDQQDgANBAOAA2EA0AD4QDQQDgANBAOAA2jwxGPx9URQPBCvQVBS0sLNTc3q1Z6/DH6sVhMtezHgU8khr8dAd96gW/BkE5rays1NjaqVnq6P2urTH9vfPsBvg2BF0INRyZPcrYabTiylZf3JQl1WRWlGQHM4OUNe0INB/9Fojb9Q3i8Wk45Qj8h9+oWVQB1dXXqyBuhh4NnDwQERovP0bxcUjEjtnJ5OvQ69ZA9eGnux/LciHCw2tpaOYN4nX6ILu4rPGP4dcdhY8LBeAZpaGjALAJDcjZyeNvWzw2dUK9zDIcv+vCePpdswwOEbhbl38dw9+OOGmfbv6qqKrAdTqPDARAmo5ZVACZBOAA0EA4ADYQDQAPhANBAOAA0EA4ADYQDQAPhANBAOAA0EA4ADYQDQAPhANBAOAA0EA4ADYQDQAPhANBAOADSIvo/2YNj0dfwMYsAAAAASUVORK5CYII=;imageBackground=#61FF8B;" parent="1" vertex="1">
          <mxGeometry x="984" y="555.76" width="57.38" height="53.93" as="geometry" />
        </mxCell>
        <mxCell id="0FrXJ8e2atUW8C_dXmEW-13" value="&lt;font color=&quot;#454545&quot; style=&quot;font-size: 12px;&quot;&gt;Container Apps Environment&lt;/font&gt;" style="text;strokeColor=none;fillColor=none;html=1;fontSize=24;fontStyle=1;verticalAlign=middle;align=center;" parent="1" vertex="1">
          <mxGeometry x="925.5294117647059" y="531" width="61.76470588235294" height="24.705882352941178" as="geometry" />
        </mxCell>
        <mxCell id="0FrXJ8e2atUW8C_dXmEW-19" value="GraphQL Api Hosted In Container App" style="shape=image;verticalLabelPosition=bottom;labelBackgroundColor=default;verticalAlign=top;aspect=fixed;imageAspect=0;image=data:image/png,iVBORw0KGgoAAAANSUhEUgAAAFcAAABXCAYAAABxyNlsAAAAAXNSR0IArs4c6QAAAARnQU1BAACxjwv8YQUAAAAJcEhZcwAAFiUAABYlAUlSJPAAABxQSURBVHhe7VzZk1xXff5637tnX6TRjKQZyfIaL2CzGHASQwKBFJglLipUqCRVVPKQFyr/QR5TlTykkioKyEPIBnFCbBeQ4BhsvALByEJ40Wpts0/v+5bv+93umdZ4NOoZdVt20K/nzN3OPffc7/zWc885riYJN6gv5G5tb1Af6Aa4faQb4PaRboDbR7oBbh/pBrh9pBvg9pHeEX5uo9FEjdWstbbcGHlcLnjJHj63C27uK+2U9Pb1Vtke3u5pldULeluBq6qU+JL5WgO5SgOFWt2Oy3WerzdQrNZQ4X6D+fT6AiLocSPo8yJIlAM6JtgRHkd9boR5zs9zW5HKXC3XsFSqI12po1qvs6FcvNeDoYAXk2GW6XYT6NYNu6DrDq64pkIAi7UmwazxhetYKNQwX6hiuVhGliAU6kCJgBcrVeMw/fQnDgt4PQj4vQgR5AiBTXhdmIgFCY4PY0EvBv28rgYgWzpAu+x55/IVHFsr4tV0GculGmoE10Mw48w/HfHjntEQ9nOrY+8uOfm6g5ut1u1Fj6creD1ZwAL3UwQ4SzAL5QqafC+Xy80X9xinKhmyRi6C3UCdYNW5RbNhgMcDfsTIgSNBD6YI9GzMjyPxAPYQcDcBPJev4t/eSOMXq1nkSlVyvKNiWAyqKprPGIsG8Zn9Cdw9FMYwOXk3dF3AFbcuklteSZXxaqqIM5kSubVC0W9SPAVSEz5yWyLoQ4ScGOV+lGCFKO7GRO0qCxAikq/UkJMqIffneH+WgAl0txqF94Z470MzA7h/PEKdDXztxBpOJPMoUxK8bCinwZxiVbLylNmqh4Yi+K2pON47GjEVs1N6S8GV3lymjjuZLeM1gno6U8Y8OTVDcERDBHOEoqw0Sm4Zp1hKd4b48gGKtc/jsXwOBCKX6ekKy5UOLTBlKAkL+TJ1aQ0LRSaqlwAb5Q/mhnDzQNDUwNdfW0azVoWPJbB4a6R1YnniYDW0y+vF+ybj+MjeuN27U3rLwF2jqJ8nkL9MlfDSSgFnskVyadOM0EDAQ5H1YyYexBQBHQ8RZMrqAHWp9GWLsbYlvYTUQ5FA61kC93yuwgYsWaP89lSMEgN890IGP7yQQtxN6dgMbAc1yfmZuguzg2E8uDfB++OtK91T38GVChAXvLBcwHOLOfxyrYBMqQIvOXGMgB6Ih3DLQAi3DQpYn1n/XpEMV5aeQI5exzAN03E27CNnUzidKlAa5Hpt02qsd4EaajQSxP174nj4wADlpItW7qDevckWJMt+iZb/W29k8M1Tq/jfxTRyNFJRiv89Ywk8PDuCL8wN48N7Y5iJ+o1Le0nyfyUVe9mIKlv6vEKgyVGtHNuTjCPxNfevxnt3yoZ9A7dAA/NysoRHz6XxFMXwUo7iSUt9M43Epw8M4VP7B3DncBgTIS+NltuA2BlfXJ1UnhNotBOfQ5Ab23Fsm5hFasZFQOWKyU3r5rZO6jm4at0igf1FsogfzWfw4kKGRquEQePWGB6cSuCDE1GqggBdHI+B+laQi8hEqRqGQ37zBmS0tmNFXaJ7bQ0/xHruJmrrKbiqaomG4BS9gScvZfHiUhZpqoFhWv97x+P42PQAHpiIkVt92+u7PtEgPZBZ+rs+Bh4CTgbOqfXlpAhQ+lpcvpd2YIZpN9RTcKus0EKxim+eSeJnSxmkabgGCOwH9w7g03TIb6c741cAf51onHW5eyiEw1RNdbcXRdZXXoGCD2NVJtl32Yo1eocTDCTuGonsyg0T9cxbUEh6in7rY+ezePpiiqqhjulogH5ijI54wqKcK8X5W5G4p1qip1FoopynRORcyKUYIKRr8AcbGJ50Y/KAH15/97pQLypbIMn67oUsPZc8GaDqdNjwmoyXuFmBx14C+/HpBO5kY4yyUXZDPQP3bK6MHy3kzY/Ml6usnB/3jUVxP/XrbCzQynU5GZdUyfFlJ5UJZKlIi14ksBUXilmGwNkaz9PzKLlRYZ7kcgn5XBH+UB17Z6m39/gItA9D4wx5B70EZnukpWsr5NbjjA6P0y6cIdApBjE1oipVpY6bCYbJdxDU/WQO6VyqasR5fqfUE3DVq/SDhRyepR+bLNcwR712hKJ0Bx3wgwRZklenFTEgK03UGcA36KBXygQz30AxJ+50I5+pM9V4jnnLbpQJcpnBQJ3cpv4FL73+9GoJF89mkGGEFx3wElwGIAcDmJoNYmImgPigH5G4B+EYJSV4Za6W6FugwQhukZFcmZImb0Z6WeAOUSJOZirW96E+CnHwTo3aNYMr8f0xI67vUcwUen54MsIYPoYgwZCc1am7xImFLOP+NMU6WaN48+WKHjvOG2fW0ah5UCOINZahKnm8LrjJLG46+/KHXB4aGLJQLlXBJfrNy5QSNVSF0ZjXR09gwI2RST/2zYZx4LYw9t8cwehkEL4A3SiWJY52bauWBINzPVtt4Cd8p8fOsxHJ1XcR2C8eGkSYhnAnAF8TuIq+1Mf6N68lsViqsxIBPMQ4vLnqwfLFJlaWa+SwGgqZBsXeg2K+Th1KEaw0GKEROdazwV+z6QDq1Jv/nD87tnPaEhgfRTNLcV6gXl/jy8sQNWj3GxSNOp38BkW7zsaJJrwY28eIby6EfYcI9i1RTEyHEYmpV0wFbk/q5/3Pcxk8Sf88SaN8gGrtY/uHzYWM7qAD55rATVIdvLCUx1dPpiwY+MS+GH59IIJjT1Zw7nUZnzoboE5ulDUmkNwICCJpYFEKW+A5VRCz67x8UhfPCQgX24BFmATI0OQoqouUkqTAdbEspgZBrtf1nDobsWo86CanSo0Ewx4kRjyYnAlRR4cxPRfF3O0JROM0hta58GZSB5P6Qb51OomjKzkLJhT8fOHQMCPJgHUidUPdN8Mmks5KU2ROZOVueTA34MeeiJfgubC2WsfyfIUAVMitNYovQebLwyURZlga5Iv7BTBhkMiLK6nj1hNF2Rdobf1sBIq1SN2Lxgu6zc6oV4zAU5dLn0sNBagzVYZUivLWqDry9DCSKyUawyIbp2zqRw0gErdX6JXIJrTZTP0bh2g33jUWsc4kXjbjd4wRpxiqW9o155bZuhfZus+ywhFGMAcpcvvpbAco/i88XsCpYyVTAz66iOqgViu2OVMcK5JBaxIwD3WmOEzXRaYObMfZVqhGpLd1ocDGXLpIF2q1gKa4lvero9xNnRygAYvSkPnCTYTjbiSGvBgYCSLObTThNkMXGwxgaDTMQMJnYArYPNWW29NAKOpGKELvIKRGduEijd1TNNJPLWRxie9610gMn5yOm7/eTWR5DWrBaWnjAVp+SbbEuVRq4PnH8jh5rMKK1xGKsbLq6icZaAKYW3FMMUcDRo7xUTzDzCckrTbtGik/N2a4WK6OCrkqli/lkFopmjTUG27sOxzA/luCNGZBjO4JYWDMi9iQB6GwlwaIjaZCmKolILdGnTpPD2epbmorl6qzrCo5O0897aExDFpZ49N0H3nPGp9xIl/Gi4sFnGb+B8ZCeO9oyKLMq1HX4NoXWL5kudCgQ+8mV8qxpyuVqSKzSv+Q1npylvptHAbuiaNl6r8GooPiBI9xqJ6k99Q/gVvIERyKs7gkFGuBQFqvEY91SuWU6f/qqChw53NYWyqyTBfu/FAC734wQeMVRIAc56XBqZbYyHkXOZIeCsErZuVDwxqzyGfKxZOWUp1kA+TunX2VgQ9VWJCcOzoVMB96H8ucOhRAjL503tdAiuokSilT92VMeucq1BW4Ep3kYhOLZ+rIJKsUUfqofAGdr+SrdKlcmNjvx+F3ewkw8OxjBZx4qWRegThIYiY7Zh68iIjJQBVz8mHlYlEc2+Ayy3qFrghunuCWzAX77J9N4rb76KHUvZg/TSCpiipFgam8DEIIWI3Bh3Sy/GUlvbIkyAwmtzX6uKd+kSQHlwk61QuNs1TEMAOTSXod4uIhAjw06UViglIx4EGwJY3bUVfgZlabeON4Ha88X0WWEY1CcZG2jQYtdMmDmSNB3PI+GrW5Jp55lJxLcAVK3MD1GOcbakKLJFAVfWnrJ7jhOEPMFrjr1Mpr4OoTME8U2Jgr8wWL1MRlX/qLffQEIrj4GnD0qQqvE0nm00+vJs50dL3AdLbthzjeigtVejNnXlmjm1cxNdVs8hztgcrxk0sjrNvwmB/TDFb2zAUwOu1HfNTrBCvU7TK8W7l49qirUY0RlUJROf1WWU8Nbl8NHn+NBqthRstDFdQWa3Go9YUoCdN24iUlVdq2+tfO07q3naedRHZd+YQvt3aB+eWuNXmhTE7NpWGGiXDC5a3Dxfqpjr4gJYPqU16KJFl1dFw9Jb1+u9J2wUCSmpINCEV5D8vKpEp49WgaT/zHKh75yhIe+dtlfP8fk/j50zksnK1QPUoaWsV0UFfgqkJuMpabekfuk1l8VszEShc3kT1IeoA7lz1U+x3H4qx2WgdN1Mpn7m8rWRaWafk78gh0caDHK69DvjGT6mtAKfx9c/26Jd0rf9lP11ERYCgmA1zFpbN5/Pj7SXzrrxfxzb9awtFnci2Dezl1Da4l+2nbpq0rbuIoMPTyHeCtb+2ijtt5WvlaN7XveXNy8jroXk7tOjq0db12SwayGEphtJiMDUnzjmKxjIunS1i+ULU+ks3UFbg7JQFgDr8BpRMOeJu3jupw8rXBbue3PKpva6s87TLtZAf1FsorU5uTnUAItCW0HbI5NNzyPjZTz8FtAyRA1KmzznHta9q29ttg2VY3t86308ax8nBr+XXyrQN0a5IEOypH+tn0+RZI9oFz+doEY50zO8Din1F7K2qf3y451FFe68zbnfqiFtY5Vr/WVqhscJ6zz78NnWvXOvKt52/tM6lciwj5906gPoArINpg2aElnXP2neu23wHim/NtJJ0zrm2DzdOmF66vbrgq9Rbc9ssaYC0wDIkNskNdN9AcsIx9ndOtDB1bUauslnfX+vf2p76oBb278FoHopUEprPlRr+OBrBrOmfXL0/qrzVVY3mZ7Cmk9Z23J/VH5xI0eQBtL4B4XJack+18Gw1h13Sp41inlJSvrsbQwTuEeg9uC411LmsBcllSFtvfOHn5+cuTYmPbV5kszzKKfqV0Lkm82hZn05OGTgskbW1/I495AAKuI7XJ9tfPd5TbkeftTH3SuRtACAnbtkDXsQNYJ7DOdeev417bd65bfh23W+IdQD0Fd91ZYJJ+NBy439kBc1liBkfUeaBjUef11jkDWOXVHZBbp98mdOXa9IVz5Tq1gXP6DFqgWGoft0HrvKYTm/M7GTeOnUdcd7LuTo0Mcga7yOBupv6pBYHaBtbOtZODjrbmXumc5du4rq2TZyOZ56FPM7ruXL5OxHpTgjSOTV87vF6vfRhV/8Jm2jG4V321lmVfB05Jp52rRuvnW9yt/fXzzu76OZ24PL/OtS86tH6kPO2dHpIep8bVR4NahccNddj4MDwewsHbIpjYH7Dvd5upK3Cb1KYbL+cknWhz4Way05ba+Zzj1qHz6vpn3O2U86Y87aTT68dbPLPVibt+vVVeL6hdpoC1L9BFfZ7yIBwN4OCtMTz4eyP4+B8O45b7wtcALsVALVYu6MuqDxqapFGI+v6lYUQOWusbM2QapWKirJNWSSXnxQ0A/VrHym/7lrEjX2daL0/JeY6ANXEkvjXWR/WrlbyoVzz2pVqDP2yED8nua/22J13XszQEq4F8uolC2gW3K4C5W+P4yOdG8fkvT+DhPx/F/Z+M2dfhYGTrL8FdgRuMAqPTbsze6bPPzUNjPoQjXnj14azuty/BGgLaINgtdAxhbezbGFP7tZTs2MnCl9D+xit35ttI/HFnvbFELEPP03c9r6+JPXNu3PKeAPYdDiEx4kUw7IPX7Uez5rNvbNUymaFKCWy47XlOSG06xgqz57B8cWgxp2ED+vDox8zhCO7/6CA+96UxfPyPhvGe34lj7q4QxqZ8iA16Wh8nVaE3U1dff50vtU1klvU5XPsaC+AMSq7km0guNTC814vZu7wY3tfA419bwcvP5EzxawxAdCBgn6yFjDMWTJ/rG1idL3JbZ8vzvsmQfUrZXB11SGsgSHq1TLF0uvs1PKpUrFk5Dzw0jLsfGMDQeJDX3cglWT8NQ9WgaX1etw+rNRvbazqz2v68rrKdpPJO/jJpIygFVCTuQ2LYj72zQTJTAHuZRg76sORu2Mj4Ib8Hg4EejVu4nJwBFTY2gOBWBe48uYctODDphj/awKNfXcaxZ7ImmkOTGi/rM5AkJzblnhUUuCuXCC4BC0W9GNkbsjyqTrtGukX/ClkHXH1e1zkNuCuXnXG7I5MBgpvA4bsjNgha8x00DkLDRpt1F0F2IbPSQHYNyKxp3EXNAK9XqELINFZWqYqzr2fIuQ0MTXgxc4SG6vYwDtwcgn/Ijay7jnOlCl5YKmIq4MWdAyEcSmw9oLuTdgGuQ2XeVkQdFYpWosmXomjpxfPk6ke/soRjz2VtXEI45oFbU6HY2hpV6G8NspOIJ5ecUTnhqA/j0+EOcDvEn1TIVJFaLhMogssGEqiaZd6gb6ZRMl4CGkl4MDDKNOLB3gMRTB4IYGLGT/H1U0X4yRO0F2zsEhkin4ID9mqN5dYt1WhU9t3kpfUPYJz3iQEkSS+livjvS1kb2B3yePD7BzVpJmqz2a9GuwZXwyzP5sv4ziUqKJfHpj7dwRQrAP/yl4s49nzexuKGY7xMQNqV1SBkfUVVQ+jDnjwGDRpJjAQMfPtcL+62e9x2byFdxdpiicBQFfCaBt5pnJjG9WryXUOJ51wuZ0CeP+i1z+w+f9OkYnwqgiN3x3D4zgQmpiNsHDaQjYykji1rADXVFYOCUNRlI200Il10MlvBf11I46n5DNKUlAf2JPCJ6YSNmu9mmQCnlF2QCtfocR8t1k+XC3h+MY+zrIzA2zNDPbU/hMHRgHGsjIiGQBUojtlUzUaXS2/r5eQPS++mlkvk5JJxaHqlTBGuUITL1JdV6lcNcCY387nGCevs0G4sNSCtO0U8m6xi6WIBy5dKSFMNyIuQmpBe9wclPS66TS6E4y7Eh9027H9iv5eJepaGUMCK3TRR29ZjSBZRoE7WfOR3j4QwyW236y/smnNFmoav2ed/99qajTL/wHgEn5iII3uyhnOv8yXnyzZESEYml66b7pSubVBny4Vrw6UayPgZZ5Orbbi+tq1jGXXHECm/lgEQpzpqQVwrTta+ChIHhuMeqoMg9lA9TB0IY8/BEMb3BW2+hIC+Gmmu8tlcBf96ahXH1wo2+/LOkSg+f3DQ5kvouBu6JnBFAujvX18znRSjWP/udBz3jDrD2zWxREP21xbqWD6vcbVl7teo6xrGWbLiEksZyFpN1p8AkxNtRD8x0FAluVyOOpGK4ElysIFJcDVmQHMiJAHiYA3Xn5oN4OZ3xXHknjim5sI27ncnxOKxWHQWu3jxUsrmeRyiAfvUAXolw6EdrbtwzeCKTmZK+PbZFH68nKfSd+EOrVEwGcVcxA8/0ZF+E9cJBAEuXZtcph4l0GvzdXoNVSycL9AV0ijwuk1CkaslQMXFNsqFutTGo/F5VQY0kgC5UBoIJ5fp0B0R6tQojVIIQUZLAepxcakaaSekAc/PUcX9x5k1ZMpVTDIa+wB17WdmEjbivEumNeoJuJrrq7kRT1zK4OerBcT4UndRjN43FrEpRloSpZPkrNs0KY31pSunMbMCVL50aknGq4LUCo/TtOqpKvL0FuQpyFeV+tDoRgUy4zM+TB8JYpKx/egeP70FP7l3Z5zaSZo69RMyyBM0Yq8l80gEA7h/Iobf0GIWXbhem6kn4Iq0Koc49zvnUzhFPTwRCeLBqTg+ujeGMRoBzaW1ZVYo0uQnhChemlHZyQlylQoZGiUaPQ1a1pQqGbb0qlyxGpKL8hLo2+5hpHhYc8/obh0koHFGizRUuyWpgjTF/6es/zMLWby8kkeNKune8QR+k8DeRXWgBYp2Sj0DV3SBIvXkfBaPv5GidfXjQ5Mx3D8etrUOVugRrFDM8jRMsrajBFyz1hPU0xK3KxlgVU+j2dPU00vnq3Y8ytBTAGso0bWSDHGOdTpKz+D75FhNWZVO17zfzx0csmULtBTWbqin4Io7tYzUDxbyJkYHY35bF+yJixkcT5bsmiaqCNwYK6wVk+4dCdtU0O2mH1kNmeSOiTonrVwrJWkQX6JH8O9nkriYLdosJQH7WQJ7D+smYHfbhD0FVwVp5rrWmJGUnqY78wyNg+ZyVegN6Entimpfk/ZmYiHcS938kckI43Zx8LVzYzek559i/aTKnptP40K2hCafPTcQpsTF8X66lQnWr1u3ayvqKbidpIWCfkgV8fwiw2CqA0mwmFN11QPJwGCgZD35M/EQXbiErXOz2fj1mrRcoaafnkiX8XNy7MurDH7SJZOcmwbDuG88invpSmrS4rU2c8/BVWFave7b59K2UshCroQY8drMkTrSozWPxEOAbx+N4eH9A9gX6d5J3wlJ3BX0SDWdzpbxAiXqZLqIbIUhOhv0MDn2/RNR/BpVlFbS6wX1HFy9xPlcGf9wchWvKLqh1W0virYV0YGwZVFcXh/+5MgoDQhdty46RbohvZjUtEJs6dZXMwR1qYCfLWeRLet7DTAY9uM2m7yXsBVB5Kf3inpkFjZIYC2XG2aB9VJXY0JdZzSPXKmMpUKZ9zl9ttdKAlaeyQkC+vj5DL7++ir++cQKXlxIIVUsUw040vJpRl5fnB1wZn/2WGJ6zrnyZX/KQOLbjHDOZ4oIadDCVYyUjGCKUdsXbxrFe+m0B70eW28xwWBEXXsRGjq9+FZMpcqrc63MMrQKiNYR0+IUa9wqjNXCbVp0c5X7RcbZ8q3HwwHcPhTGrYMhHIz7MRFUf7NTXi+p5+CqN+losohHTq/RUBQQJLjbeQB6uFQJAzT86a1jOEKjcokByf/M5zAe9GCErlCCrofWdHQWdHPZPW1S9W1JWOqWLNNqqYoVAqlp/SkCLJ0qUp+AljHU0jA3Ub+q21BGazdrNHZLPQdXXPgGde4/nVzDq3TIPYRiOzUmJ75GwNwU0y/fNm6c+jT14jdOJZGgXYnyZvW9SBcGaXg0G2Gjwi6Gw3XjWPnTpYaLQDNMZhJkkgAtq6LVoWZiBDURNFCno+rx6D/1HFyRIpxvnE7haXoLyXwJmhy5ZQ8KH20rJBHYI8NR/PGhIYLTZJSXw/cYLVUrZfNHda/1iLWoDYxzTTtK1A1MigYHKfbiUq2ENxcnoAm/heDiUq1j02PVekXqC7h626NrJYvMXqCfK+6S7jUOlopoPVLz4poeD/YwkHhIK+TRDSLWuEB9e1YL+9CiZwi2AC9S3WjFJy0ZKEOporRKXYD3hxhCi7PF5QPcHyW4w1QpWvQnQu7VZGinH+MtQrVFfQLXWVRIPfnPLuXxSrKASrVmoHSSVm3eR2DvHo3gQxNORKT319qJ6mkrEEiBKiNZpjRoKVenY9xhWIGrJQQV2dmS2i31EaHfHKKOfqtW27sS9Q1ckQA+na3geQJ8Pi83S+AIGS3t6sYUjYv6FXbmuLere32B64b6Cq5I3KrOmhO5Gi7RJcrRekvvTVAfzsZ8tnbBdkHGO5n6Dq5IAMsXlSch70BQKsQ135Xp/ye0bxG4v6rUPw/6Bt0At590A9w+0g1w+0g3wO0j3fAWSP2BAPg/Oh+jHVmG5/cAAAAASUVORK5CYII=;fontSize=10;" parent="1" vertex="1">
          <mxGeometry x="916.53" y="636" width="60" height="60" as="geometry" />
        </mxCell>
        <mxCell id="vkz5YeI83fRulZG_e0uG-31" value="" style="verticalLabelPosition=bottom;verticalAlign=top;html=1;shape=mxgraph.basic.rect;fillColor2=none;strokeWidth=1;size=20;indent=5;opacity=13;fillColor=#0054FA;strokeColor=#001DBC;fontColor=#ffffff;" vertex="1" parent="1">
          <mxGeometry x="1330" y="948.06" width="420" height="162.94" as="geometry" />
        </mxCell>
        <mxCell id="vkz5YeI83fRulZG_e0uG-32" value="&lt;font color=&quot;#454545&quot; style=&quot;font-size: 12px;&quot;&gt;Various Azure Data Services&lt;/font&gt;" style="text;strokeColor=none;fillColor=none;html=1;fontSize=24;fontStyle=1;verticalAlign=middle;align=center;" vertex="1" parent="1">
          <mxGeometry x="1607.5903921568627" y="941" width="108.82352941176471" height="28.235294117647058" as="geometry" />
        </mxCell>
        <mxCell id="0FrXJ8e2atUW8C_dXmEW-28" value="" style="aspect=fixed;html=1;points=[];align=center;image;fontSize=12;image=img/lib/azure2/databases/SQL_Database.svg;fontColor=#454545;fillColor=#F5F5F5;gradientColor=none;" parent="1" vertex="1">
          <mxGeometry x="1440" y="1002" width="42" height="56" as="geometry" />
        </mxCell>
        <mxCell id="0FrXJ8e2atUW8C_dXmEW-27" value="" style="aspect=fixed;html=1;points=[];align=center;image;fontSize=12;image=img/lib/azure2/databases/Azure_Cosmos_DB.svg;fontColor=#454545;fillColor=#F5F5F5;gradientColor=none;" parent="1" vertex="1">
          <mxGeometry x="1350" y="1006" width="52" height="52" as="geometry" />
        </mxCell>
        <mxCell id="vkz5YeI83fRulZG_e0uG-28" value="" style="verticalLabelPosition=bottom;html=1;verticalAlign=top;align=center;strokeColor=none;fillColor=#00BEF2;shape=mxgraph.azure.storage_blob;fontSize=10;" vertex="1" parent="1">
          <mxGeometry x="1520" y="1011" width="50" height="45" as="geometry" />
        </mxCell>
        <mxCell id="vkz5YeI83fRulZG_e0uG-29" value="" style="sketch=0;aspect=fixed;html=1;points=[];align=center;image;fontSize=12;image=img/lib/mscae/Cache_Redis_Product.svg;fillColor=none;" vertex="1" parent="1">
          <mxGeometry x="1600" y="1014" width="50" height="42" as="geometry" />
        </mxCell>
        <mxCell id="vkz5YeI83fRulZG_e0uG-37" value="" style="aspect=fixed;html=1;points=[];align=center;image;fontSize=12;image=img/lib/azure2/devops/Application_Insights.svg;fillColor=#4A20F5;" vertex="1" parent="1">
          <mxGeometry x="1451" y="713.5" width="44" height="63" as="geometry" />
        </mxCell>
        <mxCell id="vkz5YeI83fRulZG_e0uG-39" value="" style="aspect=fixed;html=1;points=[];align=center;image;fontSize=12;image=img/lib/azure2/management_governance/Monitor.svg;fillColor=#4A20F5;" vertex="1" parent="1">
          <mxGeometry x="1544.59" y="712.5" width="64" height="64" as="geometry" />
        </mxCell>
        <mxCell id="vkz5YeI83fRulZG_e0uG-40" value="&lt;font style=&quot;font-size: 48px;&quot;&gt;...&lt;/font&gt;" style="text;strokeColor=none;fillColor=none;html=1;fontSize=24;fontStyle=1;verticalAlign=middle;align=center;" vertex="1" parent="1">
          <mxGeometry x="1660" y="1002" width="100" height="42" as="geometry" />
        </mxCell>
        <mxCell id="vkz5YeI83fRulZG_e0uG-48" value="&lt;font color=&quot;#454545&quot; style=&quot;font-size: 12px;&quot;&gt;Monitoring&lt;/font&gt;" style="text;strokeColor=none;fillColor=none;html=1;fontSize=24;fontStyle=1;verticalAlign=middle;align=center;" vertex="1" parent="1">
          <mxGeometry x="1548.7703921568627" y="669" width="108.82352941176471" height="28.235294117647058" as="geometry" />
        </mxCell>
        <mxCell id="vkz5YeI83fRulZG_e0uG-50" value="" style="verticalLabelPosition=bottom;verticalAlign=top;html=1;shape=mxgraph.basic.rect;fillColor2=none;strokeWidth=1;size=20;indent=5;opacity=25;fillColor=#F5F5F5;" vertex="1" parent="1">
          <mxGeometry x="838" y="267.17647058823536" width="210" height="203.82352941176472" as="geometry" />
        </mxCell>
        <mxCell id="vkz5YeI83fRulZG_e0uG-51" value="&lt;font color=&quot;#454545&quot;&gt;&lt;span style=&quot;font-size: 12px;&quot;&gt;Azure Kubernetes Service&lt;/span&gt;&lt;/font&gt;" style="text;strokeColor=none;fillColor=none;html=1;fontSize=24;fontStyle=1;verticalAlign=middle;align=center;" vertex="1" parent="1">
          <mxGeometry x="936.5294117647059" y="260" width="61.76470588235294" height="24.705882352941178" as="geometry" />
        </mxCell>
        <mxCell id="vkz5YeI83fRulZG_e0uG-52" value="" style="sketch=0;aspect=fixed;html=1;points=[];align=center;image;fontSize=12;image=img/lib/mscae/Kubernetes_Services.svg;strokeColor=default;strokeWidth=1;fillColor=#FAD14B;" vertex="1" parent="1">
          <mxGeometry x="988" y="289.71" width="50" height="37" as="geometry" />
        </mxCell>
        <mxCell id="vkz5YeI83fRulZG_e0uG-55" value="GraphQL API Hosted In A Pod" style="shape=image;verticalLabelPosition=bottom;labelBackgroundColor=default;verticalAlign=top;aspect=fixed;imageAspect=0;image=data:image/png,iVBORw0KGgoAAAANSUhEUgAAAF0AAAB1CAYAAAAsju2YAAAAAXNSR0IArs4c6QAAAARnQU1BAACxjwv8YQUAAAAJcEhZcwAAFiUAABYlAUlSJPAAACB+SURBVHhe7X3XkyRXXvWpyszyXe3NTPf40Uij0c5Ku9JKrIE12EBEQEAQ8AAvPEAE7zzzF/BGBE+YIL6XD74v8EQAywqxRrvalWZX0vSYHtPd095Ud3mThnNuVbW6e9rUzFRXrZY6oVRmV2Vec+7P3d+9WRP6s/fXA/TQUYQb5x46iB7pXUCP9C6gR3oX0CO9C+iR3gX0SO8CeqR3AR0l3bJtRGKxQw8nGm3ceTIIhUI7dYUtq/Fp59HRGanvBXCrNbi1YuOTjxEO2yQ9Acs5OTnwfQ+VfA52NAXbsRAKhxrfdBYdI71aLiGz9Air929hY34GxXwB8WQCtWqVnQ8jPTyG0QtXMXHpBTgRkh+xORDtISXM8gP2Mrexgelv/ivCdhRTV69jYHwKdiRKDeyslbXe/IM/+uPG9YmiUshjbfYu7v/gm7j9na+ba9+rYXNxDutzM8itLqBSzCESTxiJj8bjJMeGYesZUTclIWytrODdf/hLM+iJ9AASA6OIsC476rCazqWgOu5I3VoNlVIZpy5ewXOf+zKufukXcebFzxhilm69T0n8N6zP34HnVmC12e76notiZhXFzRXk1pdR5SCHrXDb6zkOXYleIskUrv/Cb+DVX/ltfOV3/hBf/O3fx8XXfga1SgUfvPUvuPPdt2gKVht3y8QcdhyGvffJgQq8MucmLNuiNoWMieskukL6fiTSg7Tl1zB57dUdgqQRUvlILHrocVC0I43Zf58kOUy77cRprnbBrXnUqODEo6b96DrpnuvSmcUwMDGJwdNnd0ljQMmvIZ/J0u7P48EPv4cHN76755i/eQPVEgfHD0w4KnJr5XL9/l333efxkM+v3Jt+zEf4ng+PA9xJdJ103/cND+FwBE4sXrcIhFfzaWLWSewP8MOv/wO+/Td/gW/97Z/vHN//5/+Le+99G2tzdymxVROhsCgUczkskdwf/dv/w3f+/1+Ze9/9x/+Dj976Jzz84F3ks1k4yX6GplFqRYgDFTJt6CS6TrrIqhQLyCw/onNbQYxRi+Ln4vYmVu7fpKR+Cw/f+xbym6twK2UjlYqEtpbnsTj9PmY/eAeF7Q2UGH/nN9ew+uA2Hr7/bTrj+6a8arFo7s/yWhpQKhTqkYoZXOoV6+/0RKk7pLPTMgPF7BbKhSzj94eY+6iu/iOTZxm/p0nkOpZmPsAqP5OZ/9RX3sTrv/a7+MJv/h5eowM+8+LLKG5tYI7Sm1mYw+bSPFZn72D+w+/h4Y3vID1xFi/+9C/hDT7zyi/+Bs5c+yzi6X7OASKo5DLwqpW6aXH9/x3Ri6R1be4e7n7vbYaI/4E777yFhZvvo1bM4twrX8TwuUs0NTFUOSBerYLhs1dw+XM/jfPXX8elV34Kl1/9Es6+9BoSQ2MorC9hY+E+Y+97PD/E1uoSSgxJh06dxfNv/DyuvP4VvPjFn8dLX/5lXPj06xgYHt5DckDT8r8ieqkU87jx73+Hb/z1n+I//vxPcPO//oUOMY/BM5dx5Y2vIpZI0VSsw/MCjFx4ARdeeQPpkXET4gnRRAL9Y6cMselT58y9G49mUaLmaNJz5sVXMDx1Hn3DA7QgAV0y0Dc0jvHz1/h301EzZHTCnBjtjWg6ga6QbtkORinN17/2Jq5+4efw/Oe/hus/92u4/rO/isFTUyTDYdSyTjudNfcqpIvQyTrRWMPphcxnYcumTbaNmdDER1IrG207EWOnd6cRLMdCNElHvQs+w0WPYWOn0RXSFaVcpJm4/tU38dqbv0Wb++t4/qe+iqkXriOe6kOKZiPRN2DIc2l7C5kNkuqZQ3G8Eme1itso7XC4DEc1EG7NRW5zk75jdk/IGGLvFcF0Gl0hXTmV4clzGJm6gNNXrmHi4gs0HxNGmoV4qh/946eNJG+tLNBWz5pDSTNDohmIdWRXH6Ga30KEEU+8j06SmlBjhLO1skjHOkdnnOHfVd6bwfK9W5j98PsoM5qxY0m2wTF1dQMdJd2n5Cmm3g2Fbx4lWDPQ5qFB0SBYjDS215axTqd7552vM4S8hZWHd7HCsHD14S2sz95F4NUwwAEaOXuZNnzcaIOc6twH38fi7Q9I9m0s3v0Ac4xqFm79CLntbYQ5GdOAalIlrek0OpZllASukrBHt37I2LlgnOPImQtGx0XUbjjROE1LlJJdRDGzhuzyLFZmbmJxZhoPf/Qu5j/6AR3nfRPjn3v5Czj7qdcwNKmIJ4FyPoP8yjwjnxyl/RHre9/E7tnVRRQZ65dZN807Rs49h9ELzyE1MCQX0VF0lPTi9hZKnMgEtTJOv/CyIV1qvj+tKidpRRza7zC1wDWzTGUENzi5ySwv0KRsI8mYe+qlz5kylIPvGxpi1NPHgeBgVWmG+OzSzC2TOlbAMshIZ3jqHGP0TaTHz+DCZz7P6If1Ww6ddWetbMcWMZRj0axS9tatVCiZlxn2jZowcD/pikDk8CTpuY01zj4XaMfLxjTV8yyWccaJ9BDSYxPGByjKCQKfkl5gHYzVc+u8zhktkq2P0TE70SRnqY/MwsXAxHmkBkf4GQe3wytIHV2uC/yPIxDLjjJ+Pj7nISLlCw6CynncIZJA9sjzKubcRCisENI2efo6wvXPuhC9dJR02eDdeQ5J/34p3w9J/WHTdOOE9w3IUffvhpy3IqFuoKOk91BHZz1IDwY90ruAHuldQI/0LqBHehfQI70L6JHeBfRI7wJ6pHcBPdK7gB7pXUCP9C6gI6Q3k6c6706kNv82n+3aGvG02FNe47znYB3N77qJjpAeZ0+1u0SZ7+iuXuvzJI+YbcNxnn2hWCWoPJUrNMs3n1kWIpGIue62erc9tRvhoQK1D9bnRcnzsVL0kan40AJN2gkjaoeQrfoo1nxzT8QOYyBmYSwWQsIKgSdDTI3fHbafVhlzh/eVG60ve4GpI8tDa83bLFtl8JY6JOVsQJoPJiNhDMfCHIjQY+V0Am0nXZ2oBQGK7HmuGmCp6OEOSV/ZrML2gakBBxPJMH70qIStAuBS9FN9Nib7LDzHzy/1O0ZiRZZW7cKHmB2tfbgcseYSxkLBxVzBZ32sK+eiqtFswjU3w+bgDo9FMUKWn2d94/EwYhwIygCsDi7ZtZX0PEUzSwlTp9dyNRTY2Y2yj3k/jK1MFQl27NJohMRa+Ob0FlZzFmqU/BgJGE6FcTYKTCZtRKIcOkrjUDSMU5TINEnSsyJYjZUkb1JTHuY9VCjZ1YqLlYKHVQ7yehVYZ517wHtDFY8DGULfYARDMQ4+CR9NWkjGLcRZ1yCZH9U1pf+k+W8L6XUiAjzIebiddXF7pYLl9QpClLbACqPoWPA5IP0kUKQ/R4K/P72BuZyDqhdGiBzbTkCpq5cXT1PWSb6k/xqPC7QJoyTGoaRK8KVFdzmwb6/UsJmpoZStQlvrqiTVZV1OwkaI98jkmM6RdNo5BJU6m8lYYLTI4eAmWVea5Y9zYF8Ydij9Fvp5HTvBtdP2bMFgzyTV01s1vJejZNNAatdbLQihFrcRqIckLEoihyTV/HNxs4ztisXBYuf4vO+GUK3Vj2LN40ETxXIKlN4iB09SPEK771AMpVGzNCPTHOQVDnKVdVdZjh+pkzgx6KCv0SZphfmfTIxXJ7LWqKvE8rMlH9t6nuWv8Fxg2QlKfT+1rCEDbcczl6uoJNEQigdU7W3TS6oQCbInYrAHInBox3WkEhbS0l0OQtCfkiE19+6HJDLYplNcreH2bBn/OVPEP224WKaJyNM2b1NyCyTLpr8QrNEo7NNx9I3HcJHS+llK7uCAXocxXx8Nkl1dd/FooYrp+0W8N1/Gg20XLvvRjILajbYMpnxWlo2XAxXlIUqJRXtpjCP/k02mEBrTYPxiQHXPFfngEavxLEi3eXzA48MpqrukUI9L2gOW57EOm443pM1C/MxsCOUNcoyH+N+DwbrUFG2x89gZ9cf0o/5t29EW0tVB+b5mIxWaheSQeN1HBlxtlVAvmuB1yKWUKgQ5DvUwBSUyYYtsfiT/EahS1hEyDNdv/aSgLaQLh9GnvSkKJvaQTsKCGCN6iWYr4P1ta+iPAdrSFwkjI8XHiJfxYFRn1HUPJJkOvUErEiqtYeSSpFRXOHKMX2g+PmGivQ9tIV12NEk1P2wi8xg4CqHjbHoTGrAWbvskoS2k+xR1RRRyQu2G4u1Q+eC9jJ9UtEnSOdOjCWh5PiGHmE7SER4f0wUsNJCX/glCe2w6jwonFvutgApX9PLYYJgHGNS3ohnUIouzzQHy3sfQ0+fDioZOAgEnTB7DT18R0QmiLaQLMufNpgYaAE29dU2CHqOIn4UqNZ4PN9ZKDah1DgseoBadidGZmgFULXSu8gsVH355r6dWlFRi/SVOnloaG9YRVgoiwvIinE9wjuH8uJOufok6TZ2HKImcZ8IiEX6Os7qChxzDF4/kBLL5DHFcEqLRCUz0ckjnWE4oGUb/oIWLow6uT0RxmRMhpX1laXRoJhxiWR7r8Askn/XUipytsq55ntdV/5449QCwekN0v4XJEQsXTkfw3KBt8jwKDva+lNM+PHHCS6Mkkpt0GdL5vwJNwFzOw4drNcysV7GxVSPZ/D7GuQ1Z0mRGiaTLnJ5fHnTw3YUyFhZrqDZmmeqkNuibn/CiLXE403yJBLzB+5UKFpJWnQzl4j9iXW+vVbG6wXo2XHj0tT7n7UGa0/94GG52l/OV1jUTXvxPP8LAFsHiVMHutzEwGsUbfWGc67NNZjOlGbQqakBXOtTXJyLrEDwR6eq68iwlPsF2GfVtvtegQnKU5C12cJFSt0DSM9tVrLN7S+UAtZKLfkqQsowX2dFvTGeRydGGWlRth/aa5mNgIILLQzYVgBrDey+QwLOU8KZCNE6mrk3OuG6yji1K9tZGGRtuCCu0WFscxB2GmmiSTpsdjgaYGI5gzPYxmCTh6QiGOUgXWZfSFUlWpkd3vwOoPqvvVX6x993Ap8MTka4by5ySRylxIlhZPH2mBvVRTSXxmrhUeFFgR3V8tOXi3byPLKU/zcaL9CuU4NvzBUwv+6gMOBijGblCcq9RA86mLJNo8llOPSlYz4XkRCYhM7bzg3YB7+HIu2zTQ9Zxh4M9x4FY26igIPPVBO+xeU+a5/HJOC6lbDyftszqkaRe0ReHxDj8Mvukv5UratYrDdV3SkMo7/OsOJZ0reLoBqVXtSCxWPSwQRsq0jULFeM+VVLqaJFkmzc7bORAwsIUO6XlOlocVGjnVVZaDpHfP9igCeL8KEKyJ/p4L6VtiNItZynzsUrJfFQJsFpwUdumGWL9V0/FEeGz69katukoU0kHiQSllGWICwlBns/miy62/XqCTGZdPoDFm2XAUQ7yKNuruuReNtiuFfZrVgm7zQpCNRenqHH9LHt1q4oFDmRyJGpC4jMxi5pHX6Mlxwb3koUntf1Hkq6Oas1Rue08GV5kZ29RotZIuiFcIAk0tvVrsctZZiRuYZxEfjodxgQ7oPZFKCp1J6g8SsiYB1WsRx1+psZLyjTVX82ys7RhD2mWtArlZmjEKPZfvpbiswFmlitY2PYQpQ2O8/iM6qH0JhV5kH0KqqmnyPLUMi1I6JCCSHhkFqusJ8PBmWP5MwXWqfz/ShkJuLhKbRjqj+DWUhlzay6cIQ4u+3SJhL9ApzuactDH8oQo+x9jmNn4syUcSrqUc55SfYNmYZlOy6VEbOddPGDjIhxph0eNHaiwhzY7LtQelE1GUGKQ4nGeojU2FDURwgAlfJTiNk4NGOF1M3+ihewFSvXNbRcrlKoC68xzcHNs1VY4jDyJCyjtQR748vUEnMAj6WzHhsdy+TBH8gLt9ABJV74+SuJjIohmapT1pKk5UQ6EIZxlfTdTo6YyquJRYH/WWfcCtUL5/2DTpV0P8KnJKIZY3ocLFdxfqLEeNob1jLC+U9SsJElPSrtY9gXWM8XPzIJ7i8wfSLoaKOfxn5Sorz+qYG61hoCSp6RgiI06R7s8zOhinQOhxeDdpAdKKe5DiNIxRCk5Qzt6hY7y6lDEEC+pVF03aPf/ndHMzHIVQYbKyrptDliU99oksLxZQ2XdM6Sn2cE7C1Xcmn/cpYXYjDClPk5zcJHPf3UiYnxEPyVR84V7NEl/PV/BKqOequqhSQnzGScVQnwihhL9gRZZXhymCSLBMwsl3Fh4vD8S69AABYccXEuFcZVafZnBwSQHqhWoz4dCdkxmQQYxPO7APhdDQI9/bSyCawzlhnc82tEIsh4yDO3ushP/fbeAv58pYY5SbVNTtA9Ftt6A1+EYB5chY/p0FC+fiuFrvL6qz/jdcQgUNmZpDheKuHmvgP++ncVshgSzHg2w/EUTIZIVGrIQG3MwNRXHF/j3eQ5wiWan6bQPBe8JNjn/WCrhQ9bzzkweD1ap5S3iWNbCbIhGVCtBWpjQ9RRH9SKlV96/JbAPPgWzVKATpJlYoAnZpK+Qk6Ov/HhvC4kJEpQWDTT/G6dUX6NOT43GjV9oBbQ+8EshuDyml3xkSvXPtV1D5kWwqJk2HaoO9ctmfYrPtQAlKCajS8WW8QiHQH1i3K96cvQL2WJ1x0Icx8qxrIlorc7orJ7rWt5aplvhWstQI/mMHDD5NmdtMtIP4dDkc0JCZ0SbbMKQBnRlfu6p1JwN0NnS+VVp1g6FmsSydQQh7QjgbJUlaSeBMCDBUX8aR9MDKhzUlXJFmvnaLChuCjoCjXqUXdWvMKlqKclxrBxL+kGoss+KMtifJwNrMzmVBjRmaqA59B3N2W5IE3Ts/oUisxTYYqsjjF8VI6n85mYiDddRskL+DJdqpl6kf1J83NLDcWDzVZVpnPnrYBghabHzTRi7vOsZs9bJQ8Q2NP8x6GegEqlY4y/+TSnU6+5PA1XRXDw/DAU2Rvtlngbqn2PRDDf+PgyHki5be1TVcrBPOjtTUlHOromo4luWoYmGJi+toFKmeZGqPQVUhaKTo5ota6MZqfr+pLUoi+Q5Tn3R/Agc2FV9eJxDkFPSZOZJYEK6nVCFZZA8ZQKLLIZBR0tI9kUQl7N9CojENbb5KEEepIlTbC9HmjGzldYRohY5lbI5H4UW5as9kJQHO6EKpZvOU5GDci19LbakkK8ZZ/o0kJ0eJqGS5sOghF2OAxOh3A7sbE9tDZIbTm7N+Sg8NemaVpsY/knABu0WghpFTs5YHl/mrAlFMeZXoNk6y+XsMfvxP+egzaXOPofbKgwp9JRylodByitfoxqeVJ/EhiKx41g5tvVafAh2Ei116PcjNeVtxrVPC5k+HZKnCmeHAeNdwdh+nrVKJE2wdnls82Nnx4lSA5WAz9KAy0L7fE4+iJNSeMr7NGyMAgJOB3Zg9sfzUEuKrcqkzQDT/PwV/QWvdT4KR5aq3IrLoNpnI7X81jy07zzDsxJhLcGhs6SnTNNRjPDQpEfrnQoF5dSUQnEUTxfYVU4AfJqQKidQWyVOopShtKTsdSgeFoEHgr3RDx2lWP4Q61E+RjkRi5Ir3yHFNPM5XkuQ6v3Rbzz6yFLEFbk4vFepFsX27mEyy48V+sbZpwHWo5RIX6rexhrj2eNYOZJ0OUqNuK8GUgqDbA3edg3vrlbxHR6aWR4INYolm8hOGsGp/NiEg6tnHLzB40unIzjXV59ya/8gLzGg9DDNiqV95Jz85FnP7bUqvr1Sxc2N2k5H4jEL0f3mRdywDIthUN+ghfOTDj571sbPXIrjdJITMAkPydRgTcpRanWJAuOzP9nNqlnpUi5+Wct9GvCqC8YgSO6LXyTA6pMmVZEkcIp9eon9eY31aTVM4a9+t1fno3DgVmn1QRnbdUrBLFnfIvkiI8XG1Gh8M/x8iaqb4ecyBWESJvhbklQGTpS2SIyNjnMiRWkb0TrniINXx2N4ZSKKq32OWZpTJ9QtZRK1GqWsXTVXpY2nQeBnOarBMq9zeZbLEOf8uAOnWjFLgRucfjehfI1GLjUawRkeLw7Y+Py5BF7WlumYDY/mSWGcTKJmnGZrdZb1sFyP0u5xANbK9C/UtAg7NNanf4/JxsNcgGzuY+Lj0QDRFOvl95OU7ueGbbw6GcOnR6KYoApJQFvBoald0bjBBmn5S7PPEq+XKH3za2Xco/0qaAcFP5NnDCkKIbnuUol/0oSw089rNSjKr+OOWdAYoYQNKvdMIpUf1JbnBMlQ5FJlGRnWo/eEqqqThCzzptu1EGYpge5qBQF9qbKMskX3FtiODRe28j8k9jpDn7G4hX6q+xA7P0Rno0VyRCI0hdQSOoE461W0mqW0K9xdIuE5kqxFjJvlEGaoTSFGRcmQj5dOx0w+/cYCtZmHsqRTw47JN2kRY5B1iRMt843QsWs1S3y16GqOXsSQSsqDK9QSv2u0fXNbVEdKxTolXhWrI2wD8pImdmCQA3A6ZWGSjZvQrIefb8tJshY5Lb1ekqSLXyx4Zg21nzG3Dr38JUlMxSLwixWsscKbJPz2tssw0UOYGvC551Lwec8czc4mSTOvsnCwXxm0TRvIpYmI5PfV7rwfMsuLcssabGUZJY0698WobRyMTMnFXbblLp2HfJVVruHykIOxgahZ+ptdLMHj9TkK0tV+2+TP02yD6vDJtJy9/NKT4EjShSbparrCOkljho61TIlp+lEtg+laIbhWVOQkFTXIZi8yXJghaUWSpH/uY5yqOcWGv/+ohCVKV4ymZpidHOcgTdFen+LkZzCsNyt8szy4zoGmZUO0UqMGRU078o0Br6/ahDBI86bc/jzr0qL4lnYCUNpNsovt0tY8OdMoBSLM+ibZ4Kssa4LnEOuRUGRYScF00jP+JRW3zRrvFgfb5wClKShj/Fx7cJrzO2nskeQdgmNJPwyKODTAkhy1VUKtpTB1IMfGamCWcjXczfvGL5Romvo4EJeppnrR6+3pbazlaAcjVE852lQY51jIpCIcRgIxqm2chCY56ime+zWI9M71vekklJVu0sblWV+5XKX99XCvAvN2XZ4SumcrHtujF70gqRyKYpI2TXb/jKSWJEZYvuJrkS1NVL/UJ51Viqz6U5F0CJ6adEEjzjYaDaAwYZPT+mk60+n1GhYZFZQKlH12tBCpO7N+9uwyI4fLtMF7XvQisY5Dx2tpUYPPpBJI0qaepnPUstt5nk+RkCASNb+nWKy5mKc9fm+thntal80VGH+HkWeMXLUZAbFRak8zFje2UVswGi96hegQh9IOHSMJZ5v6Wf4YtealEUZV9D8iXjsRZKflc+TkNQjtwjO96NVsiMxGhrbzA5qLjyjZDylpeutNaf0KHakiB4siGyGBesNuhOKzuF6iVjRe9GJBnkv7W9VOABvZfMABDMyUvMiz1NhsyfA9mjs6dZJ5j7bg3YyLleUyY+wwihpYEh5n+YNDEVQowZrYGREV+TL4jRe9dC5RI7JZmiJqyCaFQ21d5n1qTpwDIOL1qEymzu1EPdZrE/Si1wJJKiqYpaRa5kWv+gpNmCToXVA5IXme+oteu0zAPgS0zdlVF7cWKvjGowr+ebVm5gVGaEmg3rBTvGydisM6HYc9HEUffcMFmq/XKbnPM7KgIB8LrTRVtZqlddf7Rbx9v4RpCo8mhpLyk0BbSJckiATZdHJOM8BZICVboaRWnLQRiZemMnFuQhmtBh01n5f0s8wyneMWJ2ZzPGsGK5uuzUzGclD6VbCpRwPAQxGQtnVo5tkSZ2ov69IrjWU67TwPDaqa2BZyDkDbyhWZzU6aJT6qqP4WAeJHxw74R4jxs+nZcVC5JJt87iSq6iV/ctE+0g8oSdQojlWkIZO6A34R0AYbST0OJFzLeEpEaYMQZdoMwCcZbSHdWIuGSu6GjIcSScYU7IbIjsdYewvV69mmiP+EoC2kUxjNjtyWf0mCJIa26b0Y/h0H884Rw72fJLSFdAniSb3opXeOXM5UN+lUE/QT2l2752dFPoFoC+nGWtDQtmKiDagRQSrOcwvVs0xFLZqZ1m26cjitVvTjibaQLhy0B0aFK3p5zOpIUFvdNCNTxIlXlESLbD3a4pNPBZ/hp7TrJNE+0slGU+k1/Q6UASMUvTzWBXrc0HFxulrGQ0Rr0XqCsb5eS9EAsvT6i161+rtMOxUTKlEZwCcCy9RKUEBttTmjsljPSeKZSVd/dYgQ/VKFUgIhxoieFgg40dimE3Q5ABoIrRLt/GNOJsY8pHMqJ8HZayqM8bSNq2NRvMqzytf6paboyvuoHpcTJ79CSy+fwgmOMoMrZQ8l1nms6Wf1WjiJaCmxP2Ry85NUzYGGqTwpjXqmhFcT6pwWJfTLRjdWqrizUkFm2zXv+IRiJFz7VCii5kWvftvkq99drGD+UdXMBPdDu2kvjkfwwqCNSyRhMlVPF6S0OYlkaEZ6M+vi7zl1X9XvR2n/ujbNUkrDfCacsOBuKWvSgMkdfJzwakIrXIlBC6cnY7gaDZn3jrQpVplH7Wk/KbSFdEHEb1GvZ0nGDMnXb3ghX0MmZGOFna4pT83OXBqpv+j11u0cNrdplsLKc9P2k7AUveUg45P+oSiGU7Yh4QxJ16s1ZoVJ9fAQ6csl32Q07xU8WNtl5DjAWoQocPBLnHhp18AOWL9Su9Itk8nsi2LA8uHEWXaS0p0I4+Vhx4S9Sj9LA5SyPim0jXRBK00ltlZvT5fY+c2ii1tZD+8XlNFzkabOXpb09lt4Z3oTy2Ubrt5uUwo3GcaVfgenY8rVKGcTNgsUJipi2ZL1Zl5bfJqXyWhC8jRXoZqHedbxIO+Z11ke5fcZBj3AQ6tTF4Y0kI5JLyvjaTk2khykVMg1O3epk/U6zIMng7aS3oQIUqFZEj9Lqb9LqSzy0CaFUcbc47TX95eLyMqXphwMUqrPUOrOUuK0ZUL2WgQ/ScdXaD5W6UNWWY9e1zkI+jfrzg44Zv30NE2QFkfMXhXLeuzfSzpJnAjpTahg7YA1vxvQyBHUNxBR45Ue4KFkll4LN2ukz2BHNWGSQMusKN9+ELQxNB7VPxrr1d8GfPrqngknSnoTWkOtu8K6rZTvlI329C/kkgCtBslePyukIVp2OwxaTHFZZyt7U04SHSG9h7145ji9hydHj/QuoEd6F9AjvQvokd4F9EjvAnqkdwE90ruAHuldQI/0LqBHescB/A+dEChEwaUTowAAAABJRU5ErkJggg==;fontSize=10;" vertex="1" parent="1">
          <mxGeometry x="915.1800000000001" y="357" width="55.64" height="70" as="geometry" />
        </mxCell>
      </root>
    </mxGraphModel>
  </diagram>
</mxfile>
